# xmcd
#
# Track frame offsets:
# 150
# 23547
# 37785
# 52510
# 65172
# 83490
# 99817
# 109300
# 130260
# 142052
# 158080
# 190415
# 218290
# 236605
# 255040
# 276497
# 294905
#
# Disc length: 4252 seconds
#
#
# Revision: 0
# Processed by: cddbd v1.4PL0 Copyright (c) Steve Scherf et al.
# Submitted via: FreeRIP 2.20 
#
DISCID=d7109a11
DTITLE=Nina Simone - My Way
DYEAR=1900
DGENRE=Blues
TTITLE0=My Way
TTITLE1=Black is the Colour
TTITLE2=Angel Of The Morning
TTITLE3=Do Nothin' Till You Hear From Me
TTITLE4=I Loves You Porgy
TTITLE5=My Baby Just Cares For Me
TTITLE6=The Gal From Joe's
TTITLE7=Blue Prelude
TTITLE8=Work Song
TTITLE9=Satin Doll
TTITLE10=House Of The Rising Sun
TTITLE11=Gin House Blues
TTITLE12=Little Liza Jane
TTITLE13=Don't Let Me Be Misunderstood
TTITLE14=Just In Time
TTITLE15=Sea Lion Woman
TTITLE16=Ne Me Quitte Pas
EXTD=
EXTT0=
EXTT1=
EXTT2=
EXTT3=
EXTT4=
EXTT5=
EXTT6=
EXTT7=
EXTT8=
EXTT9=
EXTT10=
EXTT11=
EXTT12=
EXTT13=
EXTT14=
EXTT15=
EXTT16=
PLAYORDER=
